PathFileType	4	(X/Y/Z)	53_1_16_p1_0-269_filt_butterworth.trc
DataRate	CameraRate	NumFrames	NumMarkers	Units	OrigDataRate	OrigDataStartFrame	OrigNumFrames
49.0	49.0	5	27	m	49.0	168	269
Frame#	Time	RHip			RKnee			RAnkle			RBigToe			RSmallToe			RHeel			LHip			LKnee			LAnkle			LBigToe			LSmallToe			LHeel			Neck			Head			Nose			RShoulder			RElbow			RWrist			RThumb			RIndex			RPinky			LShoulder			LElbow			LWrist			LThumb			LIndex			LPinky			
		X1	Y1	Z1	X2	Y2	Z2	X3	Y3	Z3	X4	Y4	Z4	X5	Y5	Z5	X6	Y6	Z6	X7	Y7	Z7	X8	Y8	Z8	X9	Y9	Z9	X10	Y10	Z10	X11	Y11	Z11	X12	Y12	Z12	X13	Y13	Z13	X14	Y14	Z14	X15	Y15	Z15	X16	Y16	Z16	X17	Y17	Z17	X18	Y18	Z18	X19	Y19	Z19	X20	Y20	Z20	X21	Y21	Z21	X22	Y22	Z22	X23	Y23	Z23	X24	Y24	Z24	X25	Y25	Z25	X26	Y26	Z26	X27	Y27	Z27	
168	3.4285714285714284	0.38507474540939496	0.7737267401744765	0.8993819533917256	0.36950500604801473	0.3426269019234224	0.8605054462731583	0.34464799901303045	-0.0721092271932355	0.8587038328186205	0.3080001532093977	-0.07246729226306291	0.7011390468602229	0.3676339524283744	-0.09209497937842406	0.7229965346100925	0.33082673906948057	-0.18701882350737592	0.9582664529659877	0.18508895017285967	0.7755547197812556	0.8834562158558408	0.1628999721427029	0.344080341188589	0.8833788290321274	0.1575863695855513	-0.09774178291019953	0.8908985431368932	0.16368451949584706	-0.05483149786323745	0.702710348356994	0.11594985226814224	-0.07002982397492137	0.7411100888722871	0.17327883802384544	-0.14995433431303473	0.930552870013233	0.2719486068148622	1.2820097887932531	0.7036309120144071	0.30530311552191425	1.5281014043066803	0.6135822645546133	0.29984942720652685	1.390178627141047	0.5782353523420402	0.42001467683129445	1.2294873021858395	0.7709347599482712	0.5117307238547693	1.0268408948844767	0.7642518797555132	0.5333858966021991	1.0250181479726128	0.5155658004543804	0.5367588843420634	1.0749795329655962	0.35277980956467925	0.5325110034952478	1.0704838111349608	0.32658688775950984	0.5340475067718151	1.0225618763665978	0.3806191928782326	0.13588162839594442	1.2249761747271914	0.7430541087986844	0.09580205209502729	1.0085659815940962	0.7062558740666841	0.13462062748500409	1.0043454921691402	0.44191823767199623	0.16533206049699656	1.023420355161358	0.33567616240123693	0.15089661561974405	1.017618623861622	0.282537979445897	0.1475662736139603	0.9703633416074844	0.3308838817645167	
169	3.4489795918367347	0.384940592271196	0.771981149941342	0.900667204170186	0.3734150039734912	0.3396093660950128	0.8690738157434381	0.34739647909762944	-0.07436693177623283	0.866491460369494	0.31203716728954567	-0.08073290254319973	0.7142127536924349	0.3699132944056059	-0.09445618408265163	0.7289938269303206	0.33162911182555904	-0.18496122316059505	0.9639519330788301	0.18438305615411751	0.7739992300482792	0.884356987248911	0.16149328202354235	0.34290875455079645	0.8872928100203088	0.15626037403945353	-0.09694589071119161	0.8921064831840498	0.16425524499689625	-0.06249952270860709	0.7125124994369626	0.11317995305698758	-0.07428366459065534	0.7497388299660068	0.17152519785261094	-0.14840494974882762	0.9305485078819238	0.2760740534526742	1.281822601491566	0.7033536323306264	0.311516937937012	1.527092834187114	0.6100502304754581	0.3074213451559611	1.3893485385260644	0.5824657258268351	0.4229529154361931	1.2298205122856585	0.7733944140247326	0.5096460162869361	1.0276518307504778	0.7588149583328765	0.5229485587625747	1.0379196019621348	0.5153549918103049	0.522156648863239	1.0982496321160118	0.3577148828707153	0.5207292531195225	1.0966197288012591	0.3239339380020865	0.5197806614290111	1.0492427256444665	0.36373642171075116	0.14149276526532037	1.2296923652457328	0.7305376285365694	0.10752404312085166	1.0130208579527495	0.6851600320647153	0.1586544138002979	1.0201484728028072	0.4279225425746308	0.19620184841278182	1.0418609909904821	0.3297544862647693	0.1888755493221118	1.032660523466988	0.27083093863756075	0.18415506062003786	0.9847902582119967	0.324178037002383	
170	3.4693877551020407	0.3849773349700309	0.7698374200069892	0.901877288738489	0.3768899616966329	0.3366944325673008	0.8769852020073966	0.349772493882786	-0.0768099970852971	0.8741166163954426	0.31618006375694857	-0.0878198952704312	0.7258358645228983	0.3727348260566251	-0.09614330893613955	0.7348010395806435	0.33216500987808123	-0.18270344578432135	0.9694119485986363	0.18395062889513633	0.7723664362121024	0.8843824396794155	0.16018828312144726	0.3417990776338353	0.890402872187101	0.15486733524637553	-0.09588008018897387	0.8927219732899798	0.1647573479092309	-0.06925474541866548	0.7206495622522033	0.11051460351148455	-0.07814402374407083	0.756908452254499	0.16973995729165353	-0.14686098595464525	0.9305676759893727	0.28078546155488754	1.2815081656556844	0.7027704879983943	0.3159246837243697	1.5254450118854117	0.6076215019277241	0.3145192630394425	1.3884850686913586	0.5838864022386576	0.42606664117877857	1.2291536640878058	0.7742203008254751	0.5074578763222395	1.0252747761555459	0.7487869079558306	0.5108381922783531	1.0492298688257924	0.5110147538571868	0.5025263532771778	1.1188792290610101	0.36441425117555515	0.5053686319820916	1.1188706817915048	0.32484721038547026	0.5032734683849853	1.0695068703133876	0.3486427292982502	0.14752570423058342	1.2328330925615951	0.717479695020893	0.12073637826831268	1.0148865844669503	0.6613546177446754	0.1882348450528913	1.0336531502130217	0.4148211388249534	0.23280240798058627	1.062490081060284	0.3275789108260003	0.2313492529661768	1.050107538317428	0.26373352257791566	0.22817190422133943	0.9988110331798744	0.3170887626683567	
171	3.489795918367347	0.3851037300786994	0.7673559835406363	0.9028916172106646	0.37980795909447945	0.33399221836215276	0.883823122536566	0.35158523944675435	-0.07930427263826773	0.8814077014085986	0.32002742310963994	-0.09345631228520923	0.7357772220685094	0.3759758883446134	-0.09795624201633903	0.7410506123785776	0.33233313964050654	-0.1805619376420347	0.9742759249070482	0.18388112374468257	0.7707102037147527	0.8832521886244723	0.1591343007001836	0.34112228340308837	0.892458506302068	0.1534346498008641	-0.0948234485517906	0.8928932105227134	0.1656665283512786	-0.07494054795837524	0.7269826616413995	0.10838531246128977	-0.08131916363024994	0.7619298059350457	0.1679983175044068	-0.14540871847878997	0.9306900966354662	0.2857246230107006	1.2811220193889932	0.7018913434040216	0.3190340729688339	1.5233825817540567	0.6066176065757531	0.3208472336257506	1.3873782026009824	0.5827628657333308	0.42901051421092873	1.2273500753395576	0.7739498818046167	0.5053011396818472	1.0198262428404317	0.7352125987098954	0.4987575838593356	1.0583476582877487	0.5020270237232337	0.48074273715212923	1.1355002858421654	0.3713991165298966	0.487356435003812	1.135739834966293	0.3280625374119731	0.4855054103383454	1.0816176986835597	0.3376724119719998	0.15352428678827232	1.2335760255520536	0.7052539242147198	0.13517447742072602	1.0136480564318437	0.6352732678175937	0.22204437860818968	1.0436577064609982	0.40541320009193854	0.2730787080696882	1.0816805325312608	0.33282863318164374	0.2758339260438597	1.0696065258243583	0.26553252075555783	0.2775114476098303	1.0125208048350465	0.3121125881469086	
172	3.510204081632653	0.3852250018568255	0.7648352132608842	0.903526579317905	0.38208422389150415	0.33146314541358457	0.8892084013084959	0.3527807128055053	-0.08176808045017973	0.8881817973363352	0.32312280203057375	-0.09732292981077077	0.7431109552844279	0.37904446270698255	-0.10010435840617685	0.7472305567971448	0.33213095726430236	-0.17876587803013227	0.9783890197035372	0.18415943002118865	0.7691198722201467	0.8813143228443812	0.15836186006430505	0.34105190348569203	0.8933162833739134	0.1519944443752783	-0.09384570214700783	0.892573654293028	0.16692261509709438	-0.0786998888323807	0.7308704438632444	0.10712636554340943	-0.08320351263234398	0.7642326925522577	0.16636284841032165	-0.1441548929493705	0.9310108384469159	0.29082317240672007	1.2804218550852369	0.7007779275298294	0.3214508633410015	1.5210498426214072	0.6070659749402841	0.3262404767205025	1.3862868076775068	0.5784925349553972	0.4319487992508395	1.224447833209637	0.772529290433563	0.5030910954409337	1.0119042227237767	0.7199289462368247	0.4880041079999796	1.0642613646597117	0.49027697290254846	0.45961512755745504	1.1465681620421717	0.37699431403026695	0.4687817091416354	1.146312373614453	0.3311663667145398	0.46819988737318463	1.0864412615490011	0.33063598258883076	0.15917034277148276	1.2319464584376896	0.6953913563652812	0.15005052931914964	1.0087405631620063	0.6104714964470545	0.2569190211553074	1.0489829098533587	0.4019604494688628	0.3124667366511865	1.0968220387777714	0.3446779516510586	0.3181623085500993	1.088627240414299	0.2763374122291292	0.327283486665389	1.0258172655348414	0.31224987749775734	
